<svg width="783" height="189" viewBox="0 0 783 189" fill="none" xmlns="http://www.w3.org/2000/svg">
<path d="M3.72824 174.55L11.9807 189L122.58 121.765C125.627 119.913 128.291 117.46 130.419 114.545C132.547 111.631 134.098 108.313 134.983 104.78C135.868 101.248 136.07 97.5697 135.578 93.9565C135.085 90.3434 133.907 86.8657 132.112 83.7221L123.854 69.2669L13.2598 136.507C10.2127 138.36 7.54908 140.813 5.421 143.727C3.29293 146.641 1.74207 149.96 0.856986 153.492C-0.0281017 157.025 -0.230085 160.703 0.262567 164.316C0.755219 167.929 1.93286 171.407 3.72824 174.55Z" fill="#072F69"/>
<path d="M107.413 78.7142L77.8985 96.6589C85.4926 102.357 99.3055 112.864 103.341 117.044C108.355 122.218 108.393 126.254 105.407 131.66L122.586 121.213C126.237 118.994 129.329 115.915 131.607 112.228C133.886 108.542 135.288 104.351 135.698 99.9994C129.051 91.2313 117.341 83.8546 107.413 78.7142Z" fill="#032658"/>
<path d="M136.27 105.526C140.857 88.7632 135.393 75.3019 122.58 67.5111L11.9807 0.276081L3.72824 14.7258C1.93286 17.8694 0.755219 21.3471 0.262567 24.9602C-0.230085 28.5734 -0.0281017 32.2513 0.856986 35.7839C1.74207 39.3166 3.29293 42.6348 5.421 45.549C7.54908 48.4633 10.2127 50.9165 13.2598 52.7687L108.837 110.877C108.837 110.877 122.372 119.214 109.731 128.993C109.731 128.993 132.487 119.38 136.27 105.526Z" fill="url(#paint0_linear_7_11)"/>
<path d="M3.99582 14.4497C2.20043 17.5933 1.02279 21.071 0.530142 24.6842C0.0374902 28.2973 0.239474 31.9752 1.12456 35.5079C2.00965 39.0405 3.5605 42.3587 5.68858 45.2729C7.81665 48.1872 10.4803 50.6405 13.5273 52.4926L73.4939 88.9344C73.8151 65.2307 67.8104 44.8288 61.3187 29.816L12.2483 0L3.99582 14.4497Z" fill="url(#paint1_linear_7_11)"/>
<path d="M220.499 140.636H188V49H220.767C229.989 49 237.927 50.8345 244.582 54.5036C251.237 58.1428 256.355 63.3778 259.936 70.2088C263.547 77.0398 265.353 85.2131 265.353 94.7287C265.353 104.274 263.547 112.477 259.936 119.338C256.355 126.199 251.207 131.464 244.492 135.133C237.808 138.802 229.81 140.636 220.499 140.636ZM207.383 124.036H219.693C225.423 124.036 230.242 123.022 234.152 120.994C238.091 118.935 241.046 115.759 243.015 111.463C245.015 107.138 246.014 101.56 246.014 94.7287C246.014 87.9574 245.015 82.424 243.015 78.1286C241.046 73.8331 238.106 70.6712 234.197 68.6428C230.287 66.6143 225.468 65.6001 219.738 65.6001H207.383V124.036Z" fill="#213864"/>
<path d="M310.687 141.979C303.615 141.979 297.527 140.547 292.424 137.683C287.35 134.79 283.441 130.703 280.695 125.423C277.95 120.114 276.577 113.835 276.577 106.586C276.577 99.5163 277.95 93.3118 280.695 87.9723C283.441 82.6328 287.306 78.4716 292.289 75.4886C297.303 72.5057 303.182 71.0142 309.926 71.0142C314.463 71.0142 318.685 71.745 322.595 73.2067C326.534 74.6385 329.966 76.8011 332.89 79.6946C335.845 82.5881 338.143 86.2273 339.784 90.6122C341.426 94.9673 342.246 100.068 342.246 105.915V111.15H284.187V99.3374H324.296C324.296 96.593 323.699 94.1619 322.505 92.044C321.311 89.9261 319.655 88.2706 317.536 87.0774C315.447 85.8544 313.015 85.2429 310.24 85.2429C307.345 85.2429 304.779 85.9141 302.54 87.2564C300.332 88.5689 298.601 90.3438 297.348 92.581C296.094 94.7884 295.453 97.2493 295.423 99.9638V111.195C295.423 114.595 296.05 117.533 297.303 120.009C298.586 122.485 300.392 124.394 302.719 125.737C305.047 127.079 307.808 127.75 311.001 127.75C313.12 127.75 315.059 127.452 316.82 126.855C318.581 126.259 320.088 125.364 321.341 124.17C322.595 122.977 323.55 121.516 324.206 119.786L341.843 120.949C340.948 125.185 339.113 128.884 336.337 132.045C333.592 135.178 330.04 137.624 325.683 139.384C321.356 141.114 316.358 141.979 310.687 141.979Z" fill="#213864"/>
<path d="M411.899 91.5071L394.441 92.581C394.143 91.0895 393.501 89.7472 392.516 88.554C391.532 87.331 390.233 86.3615 388.622 85.6456C387.04 84.8999 385.145 84.527 382.937 84.527C379.982 84.527 377.491 85.1534 375.461 86.4062C373.432 87.6293 372.417 89.2699 372.417 91.3281C372.417 92.9688 373.074 94.3558 374.387 95.4894C375.7 96.6229 377.953 97.5327 381.146 98.2188L393.591 100.724C400.275 102.097 405.259 104.304 408.542 107.347C411.825 110.389 413.466 114.386 413.466 119.338C413.466 123.842 412.138 127.795 409.482 131.195C406.856 134.596 403.245 137.251 398.649 139.16C394.083 141.039 388.816 141.979 382.847 141.979C373.745 141.979 366.493 140.085 361.092 136.296C355.72 132.478 352.572 127.288 351.647 120.725L370.403 119.741C370.97 122.515 372.343 124.633 374.521 126.094C376.7 127.526 379.49 128.242 382.892 128.242C386.234 128.242 388.92 127.601 390.95 126.318C393.009 125.006 394.053 123.32 394.083 121.262C394.053 119.532 393.322 118.115 391.89 117.011C390.457 115.878 388.249 115.013 385.265 114.416L373.357 112.045C366.643 110.702 361.644 108.376 358.361 105.065C355.108 101.754 353.482 97.5327 353.482 92.402C353.482 87.9872 354.676 84.1839 357.063 80.9922C359.48 77.8004 362.868 75.3395 367.225 73.6094C371.612 71.8793 376.744 71.0142 382.624 71.0142C391.308 71.0142 398.142 72.8487 403.125 76.5178C408.139 80.1868 411.064 85.1832 411.899 91.5071Z" fill="#213864"/>
<path d="M442.753 120.859L442.798 97.995H445.573L467.597 71.9091H489.487L459.898 106.452H455.376L442.753 120.859ZM425.474 140.636V49H444.544V140.636H425.474ZM468.448 140.636L448.214 110.702L460.927 97.2344L490.785 140.636H468.448Z" fill="#213864"/>
<path d="M499.201 140.636V49H518.584V124.663H557.887V140.636H499.201Z" fill="#366AD9"/>
<path d="M589.971 141.934C585.584 141.934 581.675 141.173 578.243 139.652C574.811 138.101 572.095 135.819 570.096 132.806C568.126 129.763 567.141 125.975 567.141 121.441C567.141 117.623 567.843 114.416 569.245 111.821C570.648 109.226 572.558 107.138 574.975 105.557C577.393 103.976 580.138 102.783 583.212 101.977C586.315 101.172 589.568 100.605 592.97 100.277C596.969 99.8594 600.192 99.4716 602.639 99.1136C605.087 98.7258 606.862 98.1591 607.966 97.4134C609.071 96.6676 609.623 95.5639 609.623 94.1023V93.8338C609.623 91 608.727 88.8075 606.937 87.2564C605.176 85.7052 602.669 84.9297 599.416 84.9297C595.985 84.9297 593.254 85.6903 591.225 87.2117C589.195 88.7031 587.852 90.5824 587.196 92.8494L569.559 91.4176C570.454 87.2415 572.215 83.6321 574.841 80.5895C577.467 77.517 580.854 75.1605 585.002 73.5199C589.18 71.8494 594.015 71.0142 599.506 71.0142C603.326 71.0142 606.982 71.4617 610.473 72.3565C613.995 73.2514 617.113 74.6385 619.829 76.5178C622.574 78.397 624.738 80.8132 626.32 83.7663C627.901 86.6896 628.692 90.1946 628.692 94.2812V140.636H610.607V131.106H610.07C608.966 133.254 607.489 135.148 605.639 136.788C603.788 138.399 601.565 139.667 598.969 140.592C596.372 141.487 593.373 141.934 589.971 141.934ZM595.432 128.779C598.238 128.779 600.715 128.227 602.863 127.124C605.012 125.99 606.698 124.469 607.922 122.56C609.145 120.651 609.757 118.488 609.757 116.072V108.778C609.16 109.166 608.339 109.524 607.295 109.852C606.28 110.151 605.131 110.434 603.848 110.702C602.565 110.941 601.282 111.165 599.998 111.374C598.715 111.553 597.551 111.717 596.507 111.866C594.269 112.194 592.314 112.716 590.643 113.432C588.971 114.148 587.673 115.117 586.748 116.34C585.823 117.533 585.361 119.025 585.361 120.815C585.361 123.41 586.301 125.393 588.181 126.766C590.091 128.108 592.508 128.779 595.432 128.779Z" fill="#366AD9"/>
<path d="M643.845 140.636V49H662.914V83.4531H663.496C664.332 81.6037 665.541 79.7244 667.122 77.8153C668.734 75.8764 670.823 74.2656 673.389 72.983C675.986 71.6705 679.209 71.0142 683.058 71.0142C688.072 71.0142 692.698 72.3267 696.935 74.9517C701.173 77.5469 704.56 81.4695 707.097 86.7195C709.633 91.9396 710.902 98.4872 710.902 106.362C710.902 114.028 709.663 120.501 707.186 125.781C704.739 131.031 701.397 135.013 697.159 137.728C692.951 140.413 688.236 141.755 683.014 141.755C679.313 141.755 676.165 141.143 673.568 139.92C671.002 138.697 668.898 137.161 667.257 135.312C665.615 133.433 664.362 131.538 663.496 129.629H662.646V140.636H643.845ZM662.512 106.273C662.512 110.359 663.079 113.924 664.213 116.967C665.347 120.009 666.988 122.381 669.137 124.081C671.285 125.751 673.897 126.587 676.97 126.587C680.074 126.587 682.7 125.737 684.849 124.036C686.998 122.306 688.624 119.92 689.728 116.877C690.862 113.805 691.429 110.27 691.429 106.273C691.429 102.305 690.877 98.8153 689.773 95.8026C688.669 92.7898 687.042 90.4332 684.894 88.7329C682.745 87.0327 680.104 86.1825 676.97 86.1825C673.867 86.1825 671.241 87.0028 669.092 88.6435C666.973 90.2841 665.347 92.6108 664.213 95.6236C663.079 98.6364 662.512 102.186 662.512 106.273Z" fill="#366AD9"/>
<path d="M780.834 91.5071L763.376 92.581C763.078 91.0895 762.436 89.7472 761.452 88.554C760.467 87.331 759.169 86.3615 757.557 85.6456C755.975 84.8999 754.08 84.527 751.872 84.527C748.918 84.527 746.426 85.1534 744.396 86.4062C742.367 87.6293 741.353 89.2699 741.353 91.3281C741.353 92.9688 742.009 94.3558 743.322 95.4894C744.635 96.6229 746.888 97.5327 750.082 98.2188L762.526 100.724C769.211 102.097 774.195 104.304 777.477 107.347C780.76 110.389 782.401 114.386 782.401 119.338C782.401 123.842 781.073 127.795 778.417 131.195C775.791 134.596 772.18 137.251 767.584 139.16C763.018 141.039 757.751 141.979 751.783 141.979C742.681 141.979 735.429 140.085 730.027 136.296C724.656 132.478 721.507 127.288 720.582 120.725L739.338 119.741C739.905 122.515 741.278 124.633 743.456 126.094C745.635 127.526 748.425 128.242 751.827 128.242C755.17 128.242 757.856 127.601 759.885 126.318C761.944 125.006 762.989 123.32 763.018 121.262C762.989 119.532 762.257 118.115 760.825 117.011C759.392 115.878 757.184 115.013 754.2 114.416L742.293 112.045C735.578 110.702 730.579 108.376 727.297 105.065C724.044 101.754 722.417 97.5327 722.417 92.402C722.417 87.9872 723.611 84.1839 725.998 80.9922C728.416 77.8004 731.803 75.3395 736.16 73.6094C740.547 71.8793 745.68 71.0142 751.559 71.0142C760.243 71.0142 767.077 72.8487 772.061 76.5178C777.074 80.1868 779.999 85.1832 780.834 91.5071Z" fill="#366AD9"/>
<defs>
<linearGradient id="paint0_linear_7_11" x1="4675.84" y1="23630.8" x2="-1541.27" y2="23189.8" gradientUnits="userSpaceOnUse">
<stop stop-color="#242424"/>
<stop offset="1" stop-color="#2D2D2D"/>
</linearGradient>
<linearGradient id="paint1_linear_7_11" x1="4675.84" y1="23630.8" x2="-1541.27" y2="23189.8" gradientUnits="userSpaceOnUse">
<stop stop-color="#242424"/>
<stop offset="1" stop-color="#2D2D2D"/>
</linearGradient>
</defs>
</svg>
