<svg width="783" height="189" viewBox="0 0 783 189" fill="none" xmlns="http://www.w3.org/2000/svg">
<path d="M220.499 139.636H188V48H220.767C229.989 48 237.927 49.8345 244.582 53.5036C251.237 57.1428 256.355 62.3778 259.936 69.2088C263.547 76.0398 265.353 84.2131 265.353 93.7287C265.353 103.274 263.547 111.477 259.936 118.338C256.355 125.199 251.207 130.464 244.492 134.133C237.808 137.802 229.81 139.636 220.499 139.636ZM207.383 123.036H219.693C225.423 123.036 230.242 122.022 234.152 119.994C238.091 117.935 241.046 114.759 243.015 110.463C245.015 106.138 246.014 100.56 246.014 93.7287C246.014 86.9574 245.015 81.424 243.015 77.1286C241.046 72.8331 238.106 69.6712 234.197 67.6428C230.287 65.6143 225.468 64.6001 219.738 64.6001H207.383V123.036Z" fill="white"/>
<path d="M310.687 140.979C303.615 140.979 297.527 139.547 292.424 136.683C287.35 133.79 283.441 129.703 280.695 124.423C277.95 119.114 276.577 112.835 276.577 105.586C276.577 98.5163 277.95 92.3118 280.695 86.9723C283.441 81.6328 287.306 77.4716 292.289 74.4886C297.303 71.5057 303.182 70.0142 309.926 70.0142C314.463 70.0142 318.685 70.745 322.595 72.2067C326.534 73.6385 329.966 75.8011 332.89 78.6946C335.845 81.5881 338.143 85.2273 339.784 89.6122C341.426 93.9673 342.246 99.0682 342.246 104.915V110.15H284.187V98.3374H324.296C324.296 95.593 323.699 93.1619 322.505 91.044C321.311 88.9261 319.655 87.2706 317.536 86.0774C315.447 84.8544 313.015 84.2429 310.24 84.2429C307.345 84.2429 304.779 84.9141 302.54 86.2564C300.332 87.5689 298.601 89.3438 297.348 91.581C296.094 93.7884 295.453 96.2493 295.423 98.9638V110.195C295.423 113.595 296.05 116.533 297.303 119.009C298.586 121.485 300.392 123.394 302.719 124.737C305.047 126.079 307.808 126.75 311.001 126.75C313.12 126.75 315.059 126.452 316.82 125.855C318.581 125.259 320.088 124.364 321.341 123.17C322.595 121.977 323.55 120.516 324.206 118.786L341.843 119.949C340.948 124.185 339.113 127.884 336.337 131.045C333.592 134.178 330.04 136.624 325.683 138.384C321.356 140.114 316.358 140.979 310.687 140.979Z" fill="white"/>
<path d="M411.899 90.5071L394.441 91.581C394.143 90.0895 393.501 88.7472 392.516 87.554C391.532 86.331 390.233 85.3615 388.622 84.6456C387.04 83.8999 385.145 83.527 382.937 83.527C379.982 83.527 377.491 84.1534 375.461 85.4062C373.432 86.6293 372.417 88.2699 372.417 90.3281C372.417 91.9688 373.074 93.3558 374.387 94.4894C375.7 95.6229 377.953 96.5327 381.146 97.2188L393.591 99.7244C400.275 101.097 405.259 103.304 408.542 106.347C411.825 109.389 413.466 113.386 413.466 118.338C413.466 122.842 412.138 126.795 409.482 130.195C406.856 133.596 403.245 136.251 398.649 138.16C394.083 140.039 388.816 140.979 382.847 140.979C373.745 140.979 366.493 139.085 361.092 135.296C355.72 131.478 352.572 126.288 351.647 119.725L370.403 118.741C370.97 121.515 372.343 123.633 374.521 125.094C376.7 126.526 379.49 127.242 382.892 127.242C386.234 127.242 388.92 126.601 390.95 125.318C393.009 124.006 394.053 122.32 394.083 120.262C394.053 118.532 393.322 117.115 391.89 116.011C390.457 114.878 388.249 114.013 385.265 113.416L373.357 111.045C366.643 109.702 361.644 107.376 358.361 104.065C355.108 100.754 353.482 96.5327 353.482 91.402C353.482 86.9872 354.676 83.1839 357.063 79.9922C359.48 76.8004 362.868 74.3395 367.225 72.6094C371.612 70.8793 376.744 70.0142 382.624 70.0142C391.308 70.0142 398.142 71.8487 403.125 75.5178C408.139 79.1868 411.064 84.1832 411.899 90.5071Z" fill="white"/>
<path d="M442.753 119.859L442.798 96.995H445.573L467.597 70.9091H489.487L459.898 105.452H455.376L442.753 119.859ZM425.474 139.636V48H444.544V139.636H425.474ZM468.448 139.636L448.214 109.702L460.927 96.2344L490.785 139.636H468.448Z" fill="white"/>
<path d="M499.201 139.636V48H518.584V123.663H557.887V139.636H499.201Z" fill="#366AD9"/>
<path d="M589.971 140.934C585.584 140.934 581.675 140.173 578.243 138.652C574.811 137.101 572.095 134.819 570.096 131.806C568.126 128.763 567.141 124.975 567.141 120.441C567.141 116.623 567.843 113.416 569.245 110.821C570.648 108.226 572.558 106.138 574.975 104.557C577.393 102.976 580.138 101.783 583.212 100.977C586.315 100.172 589.568 99.6051 592.97 99.277C596.969 98.8594 600.192 98.4716 602.639 98.1136C605.087 97.7258 606.862 97.1591 607.966 96.4134C609.071 95.6676 609.623 94.5639 609.623 93.1023V92.8338C609.623 90 608.727 87.8075 606.937 86.2564C605.176 84.7052 602.669 83.9297 599.416 83.9297C595.985 83.9297 593.254 84.6903 591.225 86.2117C589.195 87.7031 587.852 89.5824 587.196 91.8494L569.559 90.4176C570.454 86.2415 572.215 82.6321 574.841 79.5895C577.467 76.517 580.854 74.1605 585.002 72.5199C589.18 70.8494 594.015 70.0142 599.506 70.0142C603.326 70.0142 606.982 70.4617 610.473 71.3565C613.995 72.2514 617.113 73.6385 619.829 75.5178C622.574 77.397 624.738 79.8132 626.32 82.7663C627.901 85.6896 628.692 89.1946 628.692 93.2812V139.636H610.607V130.106H610.07C608.966 132.254 607.489 134.148 605.639 135.788C603.788 137.399 601.565 138.667 598.969 139.592C596.372 140.487 593.373 140.934 589.971 140.934ZM595.432 127.779C598.238 127.779 600.715 127.227 602.863 126.124C605.012 124.99 606.698 123.469 607.922 121.56C609.145 119.651 609.757 117.488 609.757 115.072V107.778C609.16 108.166 608.339 108.524 607.295 108.852C606.28 109.151 605.131 109.434 603.848 109.702C602.565 109.941 601.282 110.165 599.998 110.374C598.715 110.553 597.551 110.717 596.507 110.866C594.269 111.194 592.314 111.716 590.643 112.432C588.971 113.148 587.673 114.117 586.748 115.34C585.823 116.533 585.361 118.025 585.361 119.815C585.361 122.41 586.301 124.393 588.181 125.766C590.091 127.108 592.508 127.779 595.432 127.779Z" fill="#366AD9"/>
<path d="M643.845 139.636V48H662.914V82.4531H663.496C664.332 80.6037 665.541 78.7244 667.122 76.8153C668.734 74.8764 670.823 73.2656 673.389 71.983C675.986 70.6705 679.209 70.0142 683.058 70.0142C688.072 70.0142 692.698 71.3267 696.935 73.9517C701.173 76.5469 704.56 80.4695 707.097 85.7195C709.633 90.9396 710.902 97.4872 710.902 105.362C710.902 113.028 709.663 119.501 707.186 124.781C704.739 130.031 701.397 134.013 697.159 136.728C692.951 139.413 688.236 140.755 683.014 140.755C679.313 140.755 676.165 140.143 673.568 138.92C671.002 137.697 668.898 136.161 667.257 134.312C665.615 132.433 664.362 130.538 663.496 128.629H662.646V139.636H643.845ZM662.512 105.273C662.512 109.359 663.079 112.924 664.213 115.967C665.347 119.009 666.988 121.381 669.137 123.081C671.285 124.751 673.897 125.587 676.97 125.587C680.074 125.587 682.7 124.737 684.849 123.036C686.998 121.306 688.624 118.92 689.728 115.877C690.862 112.805 691.429 109.27 691.429 105.273C691.429 101.305 690.877 97.8153 689.773 94.8026C688.669 91.7898 687.042 89.4332 684.894 87.7329C682.745 86.0327 680.104 85.1825 676.97 85.1825C673.867 85.1825 671.241 86.0028 669.092 87.6435C666.973 89.2841 665.347 91.6108 664.213 94.6236C663.079 97.6364 662.512 101.186 662.512 105.273Z" fill="#366AD9"/>
<path d="M780.834 90.5071L763.376 91.581C763.078 90.0895 762.436 88.7472 761.452 87.554C760.467 86.331 759.169 85.3615 757.557 84.6456C755.975 83.8999 754.08 83.527 751.872 83.527C748.918 83.527 746.426 84.1534 744.396 85.4062C742.367 86.6293 741.353 88.2699 741.353 90.3281C741.353 91.9688 742.009 93.3558 743.322 94.4894C744.635 95.6229 746.888 96.5327 750.082 97.2188L762.526 99.7244C769.211 101.097 774.195 103.304 777.477 106.347C780.76 109.389 782.401 113.386 782.401 118.338C782.401 122.842 781.073 126.795 778.417 130.195C775.791 133.596 772.18 136.251 767.584 138.16C763.018 140.039 757.751 140.979 751.783 140.979C742.681 140.979 735.429 139.085 730.027 135.296C724.656 131.478 721.507 126.288 720.582 119.725L739.338 118.741C739.905 121.515 741.278 123.633 743.456 125.094C745.635 126.526 748.425 127.242 751.827 127.242C755.17 127.242 757.856 126.601 759.885 125.318C761.944 124.006 762.989 122.32 763.018 120.262C762.989 118.532 762.257 117.115 760.825 116.011C759.392 114.878 757.184 114.013 754.2 113.416L742.293 111.045C735.578 109.702 730.579 107.376 727.297 104.065C724.044 100.754 722.417 96.5327 722.417 91.402C722.417 86.9872 723.611 83.1839 725.998 79.9922C728.416 76.8004 731.803 74.3395 736.16 72.6094C740.547 70.8793 745.68 70.0142 751.559 70.0142C760.243 70.0142 767.077 71.8487 772.061 75.5178C777.074 79.1868 779.999 84.1832 780.834 90.5071Z" fill="#366AD9"/>
<path d="M3.72824 174.55L11.9807 189L122.58 121.765C125.627 119.913 128.291 117.46 130.419 114.545C132.547 111.631 134.098 108.313 134.983 104.78C135.868 101.248 136.07 97.5697 135.578 93.9565C135.085 90.3434 133.907 86.8657 132.112 83.7221L123.854 69.2669L13.2598 136.507C10.2127 138.36 7.54908 140.813 5.421 143.727C3.29293 146.641 1.74207 149.96 0.856986 153.492C-0.0281017 157.025 -0.230085 160.703 0.262567 164.316C0.755219 167.929 1.93286 171.407 3.72824 174.55Z" fill="#C2DBFF"/>
<path d="M107.413 78.7142L77.8985 96.6589C85.4926 102.357 99.3055 112.864 103.341 117.044C108.355 122.218 108.393 126.254 105.407 131.66L122.586 121.213C126.237 118.994 129.329 115.915 131.607 112.228C133.886 108.542 135.288 104.351 135.698 99.9994C129.051 91.2313 117.341 83.8546 107.413 78.7142Z" fill="#AFBEDA"/>
<path d="M136.27 105.526C140.857 88.7632 135.393 75.3019 122.58 67.5111L11.9807 0.276081L3.72824 14.7258C1.93286 17.8694 0.755219 21.3471 0.262567 24.9602C-0.230085 28.5734 -0.0281017 32.2513 0.856986 35.7839C1.74207 39.3166 3.29293 42.6348 5.421 45.549C7.54908 48.4633 10.2127 50.9165 13.2598 52.7687L108.837 110.877C108.837 110.877 122.372 119.214 109.731 128.993C109.731 128.993 132.487 119.38 136.27 105.526Z" fill="url(#paint0_linear_7_10)"/>
<path d="M3.99582 14.4497C2.20043 17.5933 1.02279 21.071 0.530142 24.6842C0.0374902 28.2973 0.239474 31.9752 1.12456 35.5079C2.00965 39.0405 3.5605 42.3587 5.68858 45.2729C7.81665 48.1872 10.4803 50.6405 13.5273 52.4926L73.4939 88.9344C73.8151 65.2307 67.8104 44.8288 61.3187 29.816L12.2483 0L3.99582 14.4497Z" fill="url(#paint1_linear_7_10)"/>
<defs>
<linearGradient id="paint0_linear_7_10" x1="4675.84" y1="23630.8" x2="-1541.27" y2="23189.8" gradientUnits="userSpaceOnUse">
<stop stop-color="white"/>
<stop offset="1" stop-color="white"/>
</linearGradient>
<linearGradient id="paint1_linear_7_10" x1="4675.84" y1="23630.8" x2="-1541.27" y2="23189.8" gradientUnits="userSpaceOnUse">
<stop stop-color="white"/>
<stop offset="1" stop-color="white"/>
</linearGradient>
</defs>
</svg>
