<svg width="138" height="189" viewBox="0 0 138 189" fill="none" xmlns="http://www.w3.org/2000/svg">
<path d="M3.72824 174.55L11.9807 189L122.58 121.765C125.627 119.913 128.291 117.46 130.419 114.545C132.547 111.631 134.098 108.313 134.983 104.78C135.868 101.248 136.07 97.5697 135.578 93.9565C135.085 90.3434 133.907 86.8657 132.112 83.7221L123.854 69.2669L13.2598 136.507C10.2127 138.36 7.54908 140.813 5.421 143.727C3.29293 146.641 1.74207 149.96 0.856986 153.492C-0.0281017 157.025 -0.230085 160.703 0.262567 164.316C0.755219 167.929 1.93286 171.407 3.72824 174.55Z" fill="#032E6B"/>
<path d="M107.413 78.7142L77.8985 96.6589C85.4926 102.357 99.3055 112.864 103.341 117.044C108.355 122.218 108.393 126.254 105.407 131.66L122.586 121.213C126.237 118.994 129.329 115.915 131.607 112.228C133.886 108.542 135.288 104.351 135.698 99.9994C129.051 91.2313 117.341 83.8546 107.413 78.7142Z" fill="#082253"/>
<path d="M136.27 105.526C140.857 88.7632 135.393 75.3019 122.58 67.5111L11.9807 0.276081L3.72824 14.7258C1.93286 17.8694 0.755219 21.3471 0.262567 24.9602C-0.230085 28.5734 -0.0281017 32.2513 0.856986 35.7839C1.74207 39.3166 3.29293 42.6348 5.421 45.549C7.54908 48.4633 10.2127 50.9165 13.2598 52.7687L108.837 110.877C108.837 110.877 122.372 119.214 109.731 128.993C109.731 128.993 132.487 119.38 136.27 105.526Z" fill="url(#paint0_linear_7_2)"/>
<path d="M3.99582 14.4497C2.20043 17.5933 1.02279 21.071 0.530142 24.6842C0.0374902 28.2973 0.239474 31.9752 1.12456 35.5079C2.00965 39.0405 3.5605 42.3587 5.68858 45.2729C7.81665 48.1872 10.4803 50.6405 13.5273 52.4926L73.4939 88.9344C73.8151 65.2307 67.8104 44.8288 61.3187 29.816L12.2483 0L3.99582 14.4497Z" fill="url(#paint1_linear_7_2)"/>
<defs>
<linearGradient id="paint0_linear_7_2" x1="4675.84" y1="23630.8" x2="-1541.27" y2="23189.8" gradientUnits="userSpaceOnUse">
<stop stop-color="white"/>
<stop offset="1" stop-color="#1689DA"/>
</linearGradient>
<linearGradient id="paint1_linear_7_2" x1="4675.84" y1="23630.8" x2="-1541.27" y2="23189.8" gradientUnits="userSpaceOnUse">
<stop stop-color="white"/>
<stop offset="1" stop-color="#1689DA"/>
</linearGradient>
</defs>
</svg>
