<svg width="756" height="189" viewBox="0 0 756 189" fill="none" xmlns="http://www.w3.org/2000/svg">
<path d="M3.72824 174.55L11.9807 189L122.58 121.765C125.627 119.913 128.291 117.46 130.419 114.545C132.547 111.631 134.098 108.313 134.983 104.78C135.868 101.248 136.07 97.5697 135.578 93.9565C135.085 90.3434 133.907 86.8657 132.112 83.7221L123.854 69.2669L13.2598 136.507C10.2127 138.36 7.54908 140.813 5.421 143.727C3.29293 146.641 1.74207 149.96 0.856986 153.492C-0.0281017 157.025 -0.230085 160.703 0.262567 164.316C0.755219 167.929 1.93286 171.407 3.72824 174.55Z" fill="#032E6B"/>
<path d="M107.413 78.7142L77.8985 96.6589C85.4926 102.357 99.3055 112.864 103.341 117.044C108.355 122.218 108.393 126.254 105.407 131.66L122.586 121.213C126.237 118.994 129.329 115.915 131.607 112.228C133.886 108.542 135.288 104.351 135.698 99.9994C129.051 91.2313 117.341 83.8546 107.413 78.7142Z" fill="#082253"/>
<path d="M136.27 105.526C140.857 88.7632 135.393 75.3019 122.58 67.5111L11.9807 0.276081L3.72824 14.7258C1.93286 17.8694 0.755219 21.3471 0.262567 24.9602C-0.230085 28.5734 -0.0281017 32.2513 0.856986 35.7839C1.74207 39.3166 3.29293 42.6348 5.421 45.549C7.54908 48.4633 10.2127 50.9165 13.2598 52.7687L108.837 110.877C108.837 110.877 122.372 119.214 109.731 128.993C109.731 128.993 132.487 119.38 136.27 105.526Z" fill="url(#paint0_linear_1_5)"/>
<path d="M3.99582 14.4497C2.20043 17.5933 1.02279 21.071 0.530142 24.6842C0.0374902 28.2973 0.239474 31.9752 1.12456 35.5079C2.00965 39.0405 3.5605 42.3587 5.68858 45.2729C7.81665 48.1872 10.4803 50.6405 13.5273 52.4926L73.4939 88.9344C73.8151 65.2307 67.8104 44.8288 61.3187 29.816L12.2483 0L3.99582 14.4497Z" fill="url(#paint1_linear_1_5)"/>
<path d="M194.098 139.781H161.599V48.1449H194.366C203.588 48.1449 211.526 49.9794 218.181 53.6484C224.836 57.2876 229.954 62.5227 233.535 69.3537C237.146 76.1847 238.951 84.3579 238.951 93.8736C238.951 103.419 237.146 111.622 233.535 118.483C229.954 125.344 224.806 130.609 218.091 134.278C211.406 137.947 203.408 139.781 194.098 139.781ZM180.982 123.181H193.292C199.022 123.181 203.841 122.167 207.751 120.138C211.69 118.08 214.644 114.903 216.614 110.608C218.613 106.283 219.613 100.705 219.613 93.8736C219.613 87.1023 218.613 81.5689 216.614 77.2734C214.644 72.978 211.705 69.816 207.795 67.7876C203.886 65.7592 199.066 64.745 193.337 64.745H180.982V123.181Z" fill="#213864"/>
<path d="M284.286 141.124C277.213 141.124 271.125 139.692 266.022 136.828C260.949 133.935 257.04 129.848 254.294 124.568C251.549 119.259 250.176 112.979 250.176 105.731C250.176 98.6612 251.549 92.4567 254.294 87.1172C257.04 81.7777 260.904 77.6165 265.888 74.6335C270.902 71.6506 276.781 70.1591 283.525 70.1591C288.061 70.1591 292.284 70.8899 296.193 72.3516C300.133 73.7834 303.565 75.946 306.489 78.8395C309.444 81.733 311.742 85.3722 313.383 89.7571C315.024 94.1122 315.845 99.2131 315.845 105.06V110.295H257.786V98.4822H297.895C297.895 95.7379 297.298 93.3068 296.104 91.1889C294.91 89.071 293.254 87.4155 291.135 86.2223C289.046 84.9993 286.614 84.3878 283.839 84.3878C280.944 84.3878 278.377 85.0589 276.139 86.4013C273.931 87.7138 272.2 89.4886 270.946 91.7259C269.693 93.9332 269.051 96.3942 269.022 99.1087V110.339C269.022 113.74 269.648 116.678 270.902 119.154C272.185 121.63 273.99 123.539 276.318 124.881C278.646 126.224 281.406 126.895 284.6 126.895C286.718 126.895 288.658 126.597 290.419 126C292.18 125.403 293.687 124.509 294.94 123.315C296.193 122.122 297.148 120.661 297.805 118.93L315.442 120.094C314.547 124.33 312.711 128.028 309.936 131.19C307.191 134.322 303.639 136.768 299.282 138.528C294.955 140.259 289.956 141.124 284.286 141.124Z" fill="#213864"/>
<path d="M385.498 90.652L368.04 91.7259C367.742 90.2344 367.1 88.892 366.115 87.6989C365.13 86.4759 363.832 85.5064 362.221 84.7905C360.639 84.0447 358.744 83.6719 356.536 83.6719C353.581 83.6719 351.089 84.2983 349.06 85.5511C347.031 86.7741 346.016 88.4148 346.016 90.473C346.016 92.1136 346.673 93.5007 347.986 94.6342C349.299 95.7678 351.552 96.6776 354.745 97.3636L367.189 99.8693C373.874 101.241 378.858 103.449 382.141 106.491C385.423 109.534 387.065 113.531 387.065 118.483C387.065 122.987 385.737 126.94 383.081 130.34C380.455 133.741 376.844 136.396 372.248 138.305C367.682 140.184 362.415 141.124 356.446 141.124C347.344 141.124 340.092 139.229 334.691 135.441C329.319 131.623 326.171 126.433 325.245 119.87L344.002 118.886C344.569 121.66 345.941 123.778 348.12 125.239C350.298 126.671 353.089 127.387 356.491 127.387C359.833 127.387 362.519 126.746 364.548 125.463C366.607 124.151 367.652 122.465 367.682 120.407C367.652 118.677 366.921 117.26 365.488 116.156C364.056 115.023 361.848 114.158 358.863 113.561L346.956 111.19C340.241 109.847 335.243 107.521 331.96 104.21C328.707 100.898 327.081 96.6776 327.081 91.5469C327.081 87.1321 328.274 83.3288 330.662 80.1371C333.079 76.9453 336.466 74.4844 340.823 72.7543C345.21 71.0241 350.343 70.1591 356.222 70.1591C364.906 70.1591 371.74 71.9936 376.724 75.6626C381.738 79.3317 384.662 84.3281 385.498 90.652Z" fill="#213864"/>
<path d="M416.352 120.004L416.396 97.1399H419.172L441.196 71.054H463.086L433.496 105.597H428.975L416.352 120.004ZM399.073 139.781V48.1449H418.142V139.781H399.073ZM442.046 139.781L421.813 109.847L434.526 96.3793L464.384 139.781H442.046Z" fill="#213864"/>
<path d="M472.799 139.781V48.1449H492.182V123.808H531.485V139.781H472.799Z" fill="#366AD9"/>
<path d="M563.57 141.079C559.183 141.079 555.274 140.318 551.842 138.797C548.41 137.246 545.694 134.964 543.695 131.951C541.725 128.908 540.74 125.12 540.74 120.586C540.74 116.768 541.442 113.561 542.844 110.966C544.247 108.371 546.157 106.283 548.574 104.702C550.991 103.121 553.737 101.928 556.811 101.122C559.914 100.317 563.167 99.75 566.569 99.4219C570.568 99.0043 573.791 98.6165 576.238 98.2585C578.685 97.8707 580.461 97.304 581.565 96.5582C582.669 95.8125 583.221 94.7088 583.221 93.2472V92.9787C583.221 90.1449 582.326 87.9524 580.536 86.4013C578.775 84.8501 576.268 84.0746 573.015 84.0746C569.583 84.0746 566.853 84.8352 564.823 86.3565C562.794 87.848 561.451 89.7273 560.795 91.9943L543.157 90.5625C544.053 86.3864 545.813 82.777 548.44 79.7344C551.066 76.6619 554.453 74.3054 558.601 72.6648C562.779 70.9943 567.614 70.1591 573.105 70.1591C576.925 70.1591 580.58 70.6065 584.072 71.5014C587.593 72.3963 590.712 73.7834 593.428 75.6626C596.173 77.5419 598.337 79.9581 599.918 82.9112C601.5 85.8345 602.291 89.3395 602.291 93.4261V139.781H584.206V130.251H583.669C582.565 132.398 581.088 134.293 579.237 135.933C577.387 137.544 575.164 138.812 572.568 139.737C569.971 140.631 566.972 141.079 563.57 141.079ZM569.031 127.924C571.836 127.924 574.313 127.372 576.462 126.268C578.611 125.135 580.297 123.614 581.52 121.705C582.744 119.795 583.356 117.633 583.356 115.217V107.923C582.759 108.311 581.938 108.669 580.894 108.997C579.879 109.295 578.73 109.579 577.447 109.847C576.164 110.086 574.88 110.31 573.597 110.518C572.314 110.697 571.15 110.862 570.105 111.011C567.867 111.339 565.913 111.861 564.241 112.577C562.57 113.293 561.272 114.262 560.347 115.485C559.422 116.678 558.959 118.17 558.959 119.96C558.959 122.555 559.899 124.538 561.779 125.911C563.689 127.253 566.107 127.924 569.031 127.924Z" fill="#366AD9"/>
<path d="M617.444 139.781V48.1449H636.513V82.598H637.095C637.931 80.7486 639.139 78.8693 640.721 76.9602C642.333 75.0213 644.421 73.4105 646.988 72.1278C649.584 70.8153 652.807 70.1591 656.657 70.1591C661.671 70.1591 666.296 71.4716 670.534 74.0966C674.772 76.6918 678.159 80.6143 680.695 85.8643C683.232 91.0845 684.5 97.6321 684.5 105.507C684.5 113.173 683.262 119.646 680.785 124.926C678.338 130.176 674.995 134.158 670.758 136.873C666.55 139.558 661.835 140.9 656.612 140.9C652.912 140.9 649.763 140.288 647.167 139.065C644.601 137.842 642.497 136.306 640.855 134.457C639.214 132.577 637.961 130.683 637.095 128.774H636.245V139.781H617.444ZM636.11 105.418C636.11 109.504 636.677 113.069 637.811 116.112C638.945 119.154 640.587 121.526 642.735 123.226C644.884 124.896 647.495 125.732 650.569 125.732C653.673 125.732 656.299 124.881 658.448 123.181C660.596 121.451 662.223 119.065 663.327 116.022C664.461 112.95 665.028 109.415 665.028 105.418C665.028 101.45 664.476 97.9602 663.372 94.9474C662.268 91.9347 660.641 89.5781 658.492 87.8778C656.344 86.1775 653.703 85.3274 650.569 85.3274C647.466 85.3274 644.839 86.1477 642.691 87.7884C640.572 89.429 638.945 91.7557 637.811 94.7685C636.677 97.7812 636.11 101.331 636.11 105.418Z" fill="#366AD9"/>
<path d="M754.433 90.652L736.975 91.7259C736.677 90.2344 736.035 88.892 735.05 87.6989C734.066 86.4759 732.767 85.5064 731.156 84.7905C729.574 84.0447 727.679 83.6719 725.471 83.6719C722.516 83.6719 720.024 84.2983 717.995 85.5511C715.966 86.7741 714.951 88.4148 714.951 90.473C714.951 92.1136 715.608 93.5007 716.921 94.6342C718.234 95.7678 720.487 96.6776 723.68 97.3636L736.125 99.8693C742.809 101.241 747.793 103.449 751.076 106.491C754.359 109.534 756 113.531 756 118.483C756 122.987 754.672 126.94 752.016 130.34C749.39 133.741 745.779 136.396 741.183 138.305C736.617 140.184 731.35 141.124 725.381 141.124C716.279 141.124 709.027 139.229 703.626 135.441C698.254 131.623 695.106 126.433 694.181 119.87L712.937 118.886C713.504 121.66 714.877 123.778 717.055 125.239C719.234 126.671 722.024 127.387 725.426 127.387C728.768 127.387 731.454 126.746 733.484 125.463C735.543 124.151 736.587 122.465 736.617 120.407C736.587 118.677 735.856 117.26 734.424 116.156C732.991 115.023 730.783 114.158 727.799 113.561L715.891 111.19C709.177 109.847 704.178 107.521 700.895 104.21C697.642 100.898 696.016 96.6776 696.016 91.5469C696.016 87.1321 697.21 83.3288 699.597 80.1371C702.014 76.9453 705.401 74.4844 709.759 72.7543C714.145 71.0241 719.278 70.1591 725.157 70.1591C733.842 70.1591 740.676 71.9936 745.659 75.6626C750.673 79.3317 753.598 84.3281 754.433 90.652Z" fill="#366AD9"/>
<defs>
<linearGradient id="paint0_linear_1_5" x1="25638.9" y1="23630.8" x2="-4121.96" y2="12057.3" gradientUnits="userSpaceOnUse">
<stop stop-color="#2FC8EB"/>
<stop offset="1" stop-color="#1689DA"/>
</linearGradient>
<linearGradient id="paint1_linear_1_5" x1="25638.9" y1="23630.8" x2="-4121.96" y2="12057.3" gradientUnits="userSpaceOnUse">
<stop stop-color="#2FC8EB"/>
<stop offset="1" stop-color="#1689DA"/>
</linearGradient>
</defs>
</svg>
